<svg width="24" height="24" viewBox="0 0 24 24" fill="none" xmlns="http://www.w3.org/2000/svg">
<path d="M19.09 14.4412V18.8812C19.0898 19.5094 18.8401 20.1118 18.3959 20.5561C17.9516 21.0003 17.3492 21.25 16.721 21.2502H5.12002C4.80777 21.2501 4.49863 21.1883 4.21035 21.0683C3.92208 20.9483 3.66035 20.7726 3.44021 20.5511C3.22007 20.3297 3.04586 20.0669 2.92758 19.7779C2.80931 19.489 2.74931 19.1795 2.75102 18.8672V7.27922C2.74916 6.96747 2.80919 6.65845 2.92764 6.37007C3.04608 6.08169 3.22059 5.81968 3.44103 5.59924C3.66148 5.37879 3.92348 5.20429 4.21186 5.08584C4.50025 4.9674 4.80927 4.90736 5.12102 4.90922H9.56002" stroke="white" stroke-width="1.5" stroke-linecap="round" stroke-linejoin="round"/>
<path d="M19.09 8.9951L15.005 4.9091M6.83496 15.8031V13.6381C6.83696 13.2811 6.97896 12.9381 7.22996 12.6851L16.762 3.1531C16.8886 3.02545 17.0392 2.92413 17.2052 2.85499C17.3711 2.78584 17.5492 2.75024 17.729 2.75024C17.9088 2.75024 18.0868 2.78584 18.2527 2.85499C18.4187 2.92413 18.5693 3.02545 18.696 3.1531L20.847 5.3041C20.9749 5.43058 21.0764 5.58117 21.1457 5.74716C21.215 5.91315 21.2507 6.09123 21.2507 6.2711C21.2507 6.45097 21.215 6.62906 21.1457 6.79504C21.0764 6.96103 20.9749 7.11162 20.847 7.2381L11.315 16.7701C11.0614 17.0217 10.7192 17.1636 10.362 17.1651H8.19696C7.83574 17.1651 7.48931 17.0216 7.23388 16.7662C6.97846 16.5108 6.83496 16.1643 6.83496 15.8031Z" stroke="white" stroke-width="1.5" stroke-linecap="round" stroke-linejoin="round"/>
</svg>
